<?xml version="1.0" encoding="utf-8"?>
<svg viewBox="0 0 1280 720" xmlns="http://www.w3.org/2000/svg">
  <rect width="1280" height="720" style="fill: rgb(255, 255, 255); stroke: rgb(255, 255, 255);"/>
  <path d="M 276.378 452.138 C 263.479 452.138 252.524 447.685 243.514 438.777 C 234.504 429.869 230 418.966 230 406.066 L 230 267.85 L 432.715 267.85 C 437.631 267.85 441.93 269.693 445.615 273.378 C 449.302 277.065 451.146 281.365 451.146 286.279 L 451.146 335.422 C 451.146 340.338 449.302 344.637 445.615 348.322 C 441.93 352.008 437.631 353.852 432.715 353.852 L 403.231 353.852 L 403.231 406.066 C 403.231 418.966 398.776 429.869 389.87 438.777 C 380.962 447.685 369.955 452.138 356.85 452.138 L 276.378 452.138 Z M 403.231 335.422 L 432.715 335.422 L 432.715 286.279 L 403.231 286.279 L 403.231 335.422 Z M 276.378 433.71 L 356.845 433.71 C 364.22 433.71 370.724 430.894 376.354 425.263 C 381.986 419.631 384.8 413.232 384.8 406.066 L 384.8 286.279 L 302.792 286.279 L 302.792 296.415 L 324.6 314.229 C 324.805 314.434 325.728 316.278 327.365 319.757 L 327.365 365.83 C 327.365 367.796 326.649 369.515 325.215 370.99 C 323.78 372.464 321.939 373.202 319.687 373.202 L 273.308 373.202 C 271.056 373.202 269.212 372.464 267.778 370.99 C 266.346 369.515 265.629 367.796 265.629 365.83 L 265.629 319.757 C 265.629 318.733 266.551 316.892 268.392 314.229 L 290.507 296.415 L 290.507 286.279 L 248.428 286.279 L 248.428 406.066 C 248.428 413.232 251.295 419.631 257.029 425.263 C 262.762 430.894 269.212 433.71 276.378 433.71 Z M 316.614 359.993 Z M 290.507 286.279 L 302.792 286.279 L 290.507 286.279 Z" style="fill: rgb(147, 218, 172);"/>
  <text style="font-family: Arial, sans-serif; font-size: 53.4px; white-space: pre;" transform="matrix(2.489097, 0, 0, 2.489097, 30.629541, 187.085297)"><tspan x="176.518" y="86.012">On</tspan><tspan style="fill: rgb(0, 186, 59);">tee</tspan><tspan>.</tspan><tspan style="fill: rgb(230, 239, 105);">JS</tspan><tspan x="176.518" dy="1em">​</tspan></text>
  <text style="fill: rgb(51, 51, 51); font-family: Arial, sans-serif; font-size: 30.7px; white-space: pre;" x="460" y="439.209">Typescript based virtual novel game engine</text>
</svg>