<?xml version="1.0" encoding="utf-8"?>
<svg viewBox="0 0 300 300" xmlns="http://www.w3.org/2000/svg">
<rect width="300" height="300" style="fill: rgb(255, 255, 255); stroke: rgb(255, 255, 255);"/>
  <path d="M 85.828 215.556 C 72.929 215.556 61.974 211.103 52.964 202.195 C 43.954 193.287 39.45 182.384 39.45 169.484 L 39.45 31.268 L 242.165 31.268 C 247.081 31.268 251.38 33.111 255.065 36.796 C 258.752 40.483 260.596 44.783 260.596 49.697 L 260.596 98.84 C 260.596 103.756 258.752 108.055 255.065 111.74 C 251.38 115.426 247.081 117.27 242.165 117.27 L 212.681 117.27 L 212.681 169.484 C 212.681 182.384 208.226 193.287 199.32 202.195 C 190.412 211.103 179.405 215.556 166.3 215.556 L 85.828 215.556 Z M 212.681 98.84 L 242.165 98.84 L 242.165 49.697 L 212.681 49.697 L 212.681 98.84 Z M 85.828 197.128 L 166.295 197.128 C 173.67 197.128 180.174 194.312 185.804 188.681 C 191.436 183.049 194.25 176.65 194.25 169.484 L 194.25 49.697 L 112.242 49.697 L 112.242 59.833 L 134.05 77.647 C 134.255 77.852 135.178 79.696 136.815 83.175 L 136.815 129.248 C 136.815 131.214 136.099 132.933 134.665 134.408 C 133.23 135.882 131.389 136.62 129.137 136.62 L 82.758 136.62 C 80.506 136.62 78.662 135.882 77.228 134.408 C 75.796 132.933 75.079 131.214 75.079 129.248 L 75.079 83.175 C 75.079 82.151 76.001 80.31 77.842 77.647 L 99.957 59.833 L 99.957 49.697 L 57.878 49.697 L 57.878 169.484 C 57.878 176.65 60.745 183.049 66.479 188.681 C 72.212 194.312 78.662 197.128 85.828 197.128 Z M 126.064 123.411 Z M 99.957 49.697 L 112.242 49.697 L 99.957 49.697 Z" style="fill: rgb(147, 218, 172);"/>
  <text style="font-family: Arial, sans-serif; font-size: 53.4px; white-space: pre;" transform="matrix(1, 0, 0, 1, -137.818008, 186.40567)"><tspan x="176.518" y="86.012">On</tspan><tspan style="fill: rgb(0, 186, 59);">tee</tspan><tspan>.</tspan><tspan style="fill: rgb(230, 239, 105);">JS</tspan><tspan x="176.518" dy="1em">​</tspan></text>
</svg>